<?xml version="1.0" encoding="UTF-8" standalone="no"?>
<!DOCTYPE svg PUBLIC "-//W3C//DTD SVG 1.1//EN"
 "http://www.w3.org/Graphics/SVG/1.1/DTD/svg11.dtd">
<!-- Generated by graphviz version 2.44.1 (20200629.0846)
 -->
<!-- Title: inheritanceb504f13ae3 Pages: 1 -->
<svg width="278pt" height="192pt"
 viewBox="0.00 0.00 278.00 192.00" xmlns="http://www.w3.org/2000/svg" xmlns:xlink="http://www.w3.org/1999/xlink">
<g id="graph0" class="graph" transform="scale(1 1) rotate(0) translate(4 188)">
<title>inheritanceb504f13ae3</title>
<!-- abc.ABC -->
<g id="node1" class="node">
<title>abc.ABC</title>
<g id="a_node1"><a xlink:title="Helper class that provides a standard way to create an ABC using">
<polygon fill="white" stroke="black" stroke-width="0.5" points="86,-184 29,-184 29,-165 86,-165 86,-184"/>
<text text-anchor="middle" x="57.5" y="-172" font-family="Vera Sans, DejaVu Sans, Liberation Sans, Arial, Helvetica, sans" font-size="10.00">abc.ABC</text>
</a>
</g>
</g>
<!-- kgpy.mixin.Copyable -->
<g id="node4" class="node">
<title>kgpy.mixin.Copyable</title>
<polygon fill="white" stroke="black" stroke-width="0.5" points="115,-129 0,-129 0,-110 115,-110 115,-129"/>
<text text-anchor="middle" x="57.5" y="-117" font-family="Vera Sans, DejaVu Sans, Liberation Sans, Arial, Helvetica, sans" font-size="10.00">kgpy.mixin.Copyable</text>
</g>
<!-- abc.ABC&#45;&gt;kgpy.mixin.Copyable -->
<g id="edge2" class="edge">
<title>abc.ABC&#45;&gt;kgpy.mixin.Copyable</title>
<path fill="none" stroke="black" stroke-width="0.5" d="M57.5,-164.75C57.5,-156.41 57.5,-143.74 57.5,-134.09"/>
<polygon fill="black" stroke="black" stroke-width="0.5" points="59.25,-134.09 57.5,-129.09 55.75,-134.09 59.25,-134.09"/>
</g>
<!-- esis.optics.optics.Optics -->
<g id="node2" class="node">
<title>esis.optics.optics.Optics</title>
<g id="a_node2"><a xlink:href="../_autosummary/esis.optics.optics.Optics.html#esis.optics.optics.Optics" xlink:title="Add test docstring to see if this is the problem." target="_top">
<polygon fill="white" stroke="black" stroke-width="0.5" points="195,-19 64,-19 64,0 195,0 195,-19"/>
<text text-anchor="middle" x="129.5" y="-7" font-family="Vera Sans, DejaVu Sans, Liberation Sans, Arial, Helvetica, sans" font-size="10.00">esis.optics.optics.Optics</text>
</a>
</g>
</g>
<!-- kgpy.mixin.Named -->
<g id="node3" class="node">
<title>kgpy.mixin.Named</title>
<g id="a_node3"><a xlink:title="Named(name: kgpy.Name = &lt;factory&gt;)">
<polygon fill="white" stroke="black" stroke-width="0.5" points="182.5,-74 76.5,-74 76.5,-55 182.5,-55 182.5,-74"/>
<text text-anchor="middle" x="129.5" y="-62" font-family="Vera Sans, DejaVu Sans, Liberation Sans, Arial, Helvetica, sans" font-size="10.00">kgpy.mixin.Named</text>
</a>
</g>
</g>
<!-- kgpy.mixin.Named&#45;&gt;esis.optics.optics.Optics -->
<g id="edge1" class="edge">
<title>kgpy.mixin.Named&#45;&gt;esis.optics.optics.Optics</title>
<path fill="none" stroke="black" stroke-width="0.5" d="M129.5,-54.75C129.5,-46.41 129.5,-33.74 129.5,-24.09"/>
<polygon fill="black" stroke="black" stroke-width="0.5" points="131.25,-24.09 129.5,-19.09 127.75,-24.09 131.25,-24.09"/>
</g>
<!-- kgpy.mixin.Copyable&#45;&gt;kgpy.mixin.Named -->
<g id="edge3" class="edge">
<title>kgpy.mixin.Copyable&#45;&gt;kgpy.mixin.Named</title>
<path fill="none" stroke="black" stroke-width="0.5" d="M69.07,-109.98C81.07,-101.15 99.93,-87.27 113.38,-77.36"/>
<polygon fill="black" stroke="black" stroke-width="0.5" points="114.73,-78.54 117.72,-74.17 112.66,-75.73 114.73,-78.54"/>
</g>
<!-- kgpy.mixin.Dataframable -->
<g id="node5" class="node">
<title>kgpy.mixin.Dataframable</title>
<g id="a_node5"><a xlink:title="This mixin class naively converts a child class to a :class:`pandas.Dataframe`.">
<polygon fill="white" stroke="black" stroke-width="0.5" points="270,-129 133,-129 133,-110 270,-110 270,-129"/>
<text text-anchor="middle" x="201.5" y="-117" font-family="Vera Sans, DejaVu Sans, Liberation Sans, Arial, Helvetica, sans" font-size="10.00">kgpy.mixin.Dataframable</text>
</a>
</g>
</g>
<!-- kgpy.mixin.Dataframable&#45;&gt;kgpy.mixin.Named -->
<g id="edge4" class="edge">
<title>kgpy.mixin.Dataframable&#45;&gt;kgpy.mixin.Named</title>
<path fill="none" stroke="black" stroke-width="0.5" d="M189.93,-109.98C177.93,-101.15 159.07,-87.27 145.62,-77.36"/>
<polygon fill="black" stroke="black" stroke-width="0.5" points="146.34,-75.73 141.28,-74.17 144.27,-78.54 146.34,-75.73"/>
</g>
</g>
</svg>
