<?xml version="1.0" encoding="UTF-8" standalone="no"?>
<!DOCTYPE svg PUBLIC "-//W3C//DTD SVG 1.1//EN"
 "http://www.w3.org/Graphics/SVG/1.1/DTD/svg11.dtd">
<!-- Generated by graphviz version 2.44.1 (20200629.0846)
 -->
<!-- Title: inheritance31211b2ee9 Pages: 1 -->
<svg width="138pt" height="137pt"
 viewBox="0.00 0.00 138.00 137.00" xmlns="http://www.w3.org/2000/svg" xmlns:xlink="http://www.w3.org/1999/xlink">
<g id="graph0" class="graph" transform="scale(1 1) rotate(0) translate(4 133)">
<title>inheritance31211b2ee9</title>
<!-- abc.ABC -->
<g id="node1" class="node">
<title>abc.ABC</title>
<g id="a_node1"><a xlink:title="Helper class that provides a standard way to create an ABC using">
<polygon fill="white" stroke="black" stroke-width="0.5" points="93.5,-129 36.5,-129 36.5,-110 93.5,-110 93.5,-129"/>
<text text-anchor="middle" x="65" y="-117" font-family="Vera Sans, DejaVu Sans, Liberation Sans, Arial, Helvetica, sans" font-size="10.00">abc.ABC</text>
</a>
</g>
</g>
<!-- kgpy.mixin.Pickleable -->
<g id="node3" class="node">
<title>kgpy.mixin.Pickleable</title>
<g id="a_node3"><a xlink:title="Class for adding &#39;to_pickle&#39; and &#39;from_pickle&#39; methods for objects will long creation times.">
<polygon fill="white" stroke="black" stroke-width="0.5" points="124,-74 6,-74 6,-55 124,-55 124,-74"/>
<text text-anchor="middle" x="65" y="-62" font-family="Vera Sans, DejaVu Sans, Liberation Sans, Arial, Helvetica, sans" font-size="10.00">kgpy.mixin.Pickleable</text>
</a>
</g>
</g>
<!-- abc.ABC&#45;&gt;kgpy.mixin.Pickleable -->
<g id="edge2" class="edge">
<title>abc.ABC&#45;&gt;kgpy.mixin.Pickleable</title>
<path fill="none" stroke="black" stroke-width="0.5" d="M65,-109.75C65,-101.41 65,-88.74 65,-79.09"/>
<polygon fill="black" stroke="black" stroke-width="0.5" points="66.75,-79.09 65,-74.09 63.25,-79.09 66.75,-79.09"/>
</g>
<!-- esis.data.level_3.Level_3 -->
<g id="node2" class="node">
<title>esis.data.level_3.Level_3</title>
<g id="a_node2"><a xlink:href="../_autosummary/esis.data.level_3.Level_3.html#esis.data.level_3.Level_3" xlink:title="The ESIS Level_3 data will be stored in an NDCube." target="_top">
<polygon fill="white" stroke="black" stroke-width="0.5" points="130,-19 0,-19 0,0 130,0 130,-19"/>
<text text-anchor="middle" x="65" y="-7" font-family="Vera Sans, DejaVu Sans, Liberation Sans, Arial, Helvetica, sans" font-size="10.00">esis.data.level_3.Level_3</text>
</a>
</g>
</g>
<!-- kgpy.mixin.Pickleable&#45;&gt;esis.data.level_3.Level_3 -->
<g id="edge1" class="edge">
<title>kgpy.mixin.Pickleable&#45;&gt;esis.data.level_3.Level_3</title>
<path fill="none" stroke="black" stroke-width="0.5" d="M65,-54.75C65,-46.41 65,-33.74 65,-24.09"/>
<polygon fill="black" stroke="black" stroke-width="0.5" points="66.75,-24.09 65,-19.09 63.25,-24.09 66.75,-24.09"/>
</g>
</g>
</svg>
