<?xml version="1.0" encoding="UTF-8" standalone="no"?>
<!DOCTYPE svg PUBLIC "-//W3C//DTD SVG 1.1//EN"
 "http://www.w3.org/Graphics/SVG/1.1/DTD/svg11.dtd">
<!-- Generated by graphviz version 2.44.1 (20200629.0846)
 -->
<!-- Title: inheritance822ede69dc Pages: 1 -->
<svg width="143pt" height="137pt"
 viewBox="0.00 0.00 143.00 137.00" xmlns="http://www.w3.org/2000/svg" xmlns:xlink="http://www.w3.org/1999/xlink">
<g id="graph0" class="graph" transform="scale(1 1) rotate(0) translate(4 133)">
<title>inheritance822ede69dc</title>
<!-- abc.ABC -->
<g id="node1" class="node">
<title>abc.ABC</title>
<g id="a_node1"><a xlink:title="Helper class that provides a standard way to create an ABC using">
<polygon fill="white" stroke="black" stroke-width="0.5" points="96,-129 39,-129 39,-110 96,-110 96,-129"/>
<text text-anchor="middle" x="67.5" y="-117" font-family="Vera Sans, DejaVu Sans, Liberation Sans, Arial, Helvetica, sans" font-size="10.00">abc.ABC</text>
</a>
</g>
</g>
<!-- kgpy.mixin.Pickleable -->
<g id="node3" class="node">
<title>kgpy.mixin.Pickleable</title>
<g id="a_node3"><a xlink:title="Class for adding &#39;to_pickle&#39; and &#39;from_pickle&#39; methods for objects will long creation times.">
<polygon fill="white" stroke="black" stroke-width="0.5" points="126.5,-74 8.5,-74 8.5,-55 126.5,-55 126.5,-74"/>
<text text-anchor="middle" x="67.5" y="-62" font-family="Vera Sans, DejaVu Sans, Liberation Sans, Arial, Helvetica, sans" font-size="10.00">kgpy.mixin.Pickleable</text>
</a>
</g>
</g>
<!-- abc.ABC&#45;&gt;kgpy.mixin.Pickleable -->
<g id="edge2" class="edge">
<title>abc.ABC&#45;&gt;kgpy.mixin.Pickleable</title>
<path fill="none" stroke="black" stroke-width="0.5" d="M67.5,-109.75C67.5,-101.41 67.5,-88.74 67.5,-79.09"/>
<polygon fill="black" stroke="black" stroke-width="0.5" points="69.25,-79.09 67.5,-74.09 65.75,-79.09 69.25,-79.09"/>
</g>
<!-- esis.data.level_4.Level_4 -->
<g id="node2" class="node">
<title>esis.data.level_4.Level_4</title>
<g id="a_node2"><a xlink:href="../_autosummary/esis.data.level_4.Level_4.html#esis.data.level_4.Level_4" xlink:title="Level_4(cube_list: List[esis.data.inversion.mart.result.Result], wcs_list: List[astropy.wcs.wcs.WCS])" target="_top">
<polygon fill="white" stroke="black" stroke-width="0.5" points="135,-19 0,-19 0,0 135,0 135,-19"/>
<text text-anchor="middle" x="67.5" y="-7" font-family="Vera Sans, DejaVu Sans, Liberation Sans, Arial, Helvetica, sans" font-size="10.00">esis.data.level_4.Level_4</text>
</a>
</g>
</g>
<!-- kgpy.mixin.Pickleable&#45;&gt;esis.data.level_4.Level_4 -->
<g id="edge1" class="edge">
<title>kgpy.mixin.Pickleable&#45;&gt;esis.data.level_4.Level_4</title>
<path fill="none" stroke="black" stroke-width="0.5" d="M67.5,-54.75C67.5,-46.41 67.5,-33.74 67.5,-24.09"/>
<polygon fill="black" stroke="black" stroke-width="0.5" points="69.25,-24.09 67.5,-19.09 65.75,-24.09 69.25,-24.09"/>
</g>
</g>
</svg>
