<?xml version="1.0" encoding="UTF-8" standalone="no"?>
<!DOCTYPE svg PUBLIC "-//W3C//DTD SVG 1.1//EN"
 "http://www.w3.org/Graphics/SVG/1.1/DTD/svg11.dtd">
<!-- Generated by graphviz version 2.44.1 (20200629.0846)
 -->
<!-- Title: inheritancec2fb85e50a Pages: 1 -->
<svg width="421pt" height="302pt"
 viewBox="0.00 0.00 420.50 302.00" xmlns="http://www.w3.org/2000/svg" xmlns:xlink="http://www.w3.org/1999/xlink">
<g id="graph0" class="graph" transform="scale(1 1) rotate(0) translate(4 298)">
<title>inheritancec2fb85e50a</title>
<!-- abc.ABC -->
<g id="node1" class="node">
<title>abc.ABC</title>
<g id="a_node1"><a xlink:title="Helper class that provides a standard way to create an ABC using">
<polygon fill="white" stroke="black" stroke-width="0.5" points="206,-294 149,-294 149,-275 206,-275 206,-294"/>
<text text-anchor="middle" x="177.5" y="-282" font-family="Vera Sans, DejaVu Sans, Liberation Sans, Arial, Helvetica, sans" font-size="10.00">abc.ABC</text>
</a>
</g>
</g>
<!-- kgpy.mixin.Copyable -->
<g id="node4" class="node">
<title>kgpy.mixin.Copyable</title>
<polygon fill="white" stroke="black" stroke-width="0.5" points="115,-239 0,-239 0,-220 115,-220 115,-239"/>
<text text-anchor="middle" x="57.5" y="-227" font-family="Vera Sans, DejaVu Sans, Liberation Sans, Arial, Helvetica, sans" font-size="10.00">kgpy.mixin.Copyable</text>
</g>
<!-- abc.ABC&#45;&gt;kgpy.mixin.Copyable -->
<g id="edge2" class="edge">
<title>abc.ABC&#45;&gt;kgpy.mixin.Copyable</title>
<path fill="none" stroke="black" stroke-width="0.5" d="M158.22,-274.98C137.44,-265.81 104.31,-251.18 81.77,-241.22"/>
<polygon fill="black" stroke="black" stroke-width="0.5" points="82.41,-239.59 77.13,-239.17 81,-242.79 82.41,-239.59"/>
</g>
<!-- kgpy.optics.component.Component -->
<g id="node7" class="node">
<title>kgpy.optics.component.Component</title>
<g id="a_node7"><a xlink:title="Component(*args, **kwds)">
<polygon fill="white" stroke="black" stroke-width="0.5" points="392.5,-129 204.5,-129 204.5,-110 392.5,-110 392.5,-129"/>
<text text-anchor="middle" x="298.5" y="-117" font-family="Vera Sans, DejaVu Sans, Liberation Sans, Arial, Helvetica, sans" font-size="10.00">kgpy.optics.component.Component</text>
</a>
</g>
</g>
<!-- abc.ABC&#45;&gt;kgpy.optics.component.Component -->
<g id="edge6" class="edge">
<title>abc.ABC&#45;&gt;kgpy.optics.component.Component</title>
<path fill="none" stroke="black" stroke-width="0.5" d="M206.03,-278.59C229.2,-273.06 260.84,-261.68 278.5,-239 302.71,-207.91 302.08,-158.2 300.09,-134.26"/>
<polygon fill="black" stroke="black" stroke-width="0.5" points="301.81,-133.84 299.6,-129.02 298.32,-134.17 301.81,-133.84"/>
</g>
<!-- esis.optics.primary.Primary -->
<g id="node2" class="node">
<title>esis.optics.primary.Primary</title>
<g id="a_node2"><a xlink:href="../_autosummary/esis.optics.primary.Primary.html#esis.optics.primary.Primary" xlink:title="Primary(*args, **kwds)" target="_top">
<polygon fill="white" stroke="black" stroke-width="0.5" points="371.5,-19 225.5,-19 225.5,0 371.5,0 371.5,-19"/>
<text text-anchor="middle" x="298.5" y="-7" font-family="Vera Sans, DejaVu Sans, Liberation Sans, Arial, Helvetica, sans" font-size="10.00">esis.optics.primary.Primary</text>
</a>
</g>
</g>
<!-- kgpy.optics.component.PistonComponent -->
<g id="node3" class="node">
<title>kgpy.optics.component.PistonComponent</title>
<g id="a_node3"><a xlink:title="PistonComponent(*args, **kwds)">
<polygon fill="white" stroke="black" stroke-width="0.5" points="407,-74 190,-74 190,-55 407,-55 407,-74"/>
<text text-anchor="middle" x="298.5" y="-62" font-family="Vera Sans, DejaVu Sans, Liberation Sans, Arial, Helvetica, sans" font-size="10.00">kgpy.optics.component.PistonComponent</text>
</a>
</g>
</g>
<!-- kgpy.optics.component.PistonComponent&#45;&gt;esis.optics.primary.Primary -->
<g id="edge1" class="edge">
<title>kgpy.optics.component.PistonComponent&#45;&gt;esis.optics.primary.Primary</title>
<path fill="none" stroke="black" stroke-width="0.5" d="M298.5,-54.75C298.5,-46.41 298.5,-33.74 298.5,-24.09"/>
<polygon fill="black" stroke="black" stroke-width="0.5" points="300.25,-24.09 298.5,-19.09 296.75,-24.09 300.25,-24.09"/>
</g>
<!-- kgpy.mixin.Named -->
<g id="node6" class="node">
<title>kgpy.mixin.Named</title>
<g id="a_node6"><a xlink:title="Named(name: kgpy.Name = &lt;factory&gt;)">
<polygon fill="white" stroke="black" stroke-width="0.5" points="254.5,-184 148.5,-184 148.5,-165 254.5,-165 254.5,-184"/>
<text text-anchor="middle" x="201.5" y="-172" font-family="Vera Sans, DejaVu Sans, Liberation Sans, Arial, Helvetica, sans" font-size="10.00">kgpy.mixin.Named</text>
</a>
</g>
</g>
<!-- kgpy.mixin.Copyable&#45;&gt;kgpy.mixin.Named -->
<g id="edge3" class="edge">
<title>kgpy.mixin.Copyable&#45;&gt;kgpy.mixin.Named</title>
<path fill="none" stroke="black" stroke-width="0.5" d="M80.64,-219.98C105.78,-210.73 145.99,-195.93 173.05,-185.97"/>
<polygon fill="black" stroke="black" stroke-width="0.5" points="173.86,-187.54 177.94,-184.17 172.65,-184.26 173.86,-187.54"/>
</g>
<!-- kgpy.mixin.Dataframable -->
<g id="node5" class="node">
<title>kgpy.mixin.Dataframable</title>
<g id="a_node5"><a xlink:title="This mixin class naively converts a child class to a :class:`pandas.Dataframe`.">
<polygon fill="white" stroke="black" stroke-width="0.5" points="270,-239 133,-239 133,-220 270,-220 270,-239"/>
<text text-anchor="middle" x="201.5" y="-227" font-family="Vera Sans, DejaVu Sans, Liberation Sans, Arial, Helvetica, sans" font-size="10.00">kgpy.mixin.Dataframable</text>
</a>
</g>
</g>
<!-- kgpy.mixin.Dataframable&#45;&gt;kgpy.mixin.Named -->
<g id="edge4" class="edge">
<title>kgpy.mixin.Dataframable&#45;&gt;kgpy.mixin.Named</title>
<path fill="none" stroke="black" stroke-width="0.5" d="M201.5,-219.75C201.5,-211.41 201.5,-198.74 201.5,-189.09"/>
<polygon fill="black" stroke="black" stroke-width="0.5" points="203.25,-189.09 201.5,-184.09 199.75,-189.09 203.25,-189.09"/>
</g>
<!-- kgpy.mixin.Named&#45;&gt;kgpy.optics.component.Component -->
<g id="edge5" class="edge">
<title>kgpy.mixin.Named&#45;&gt;kgpy.optics.component.Component</title>
<path fill="none" stroke="black" stroke-width="0.5" d="M217.08,-164.98C233.67,-155.92 259.99,-141.54 278.19,-131.6"/>
<polygon fill="black" stroke="black" stroke-width="0.5" points="279.08,-133.1 282.63,-129.17 277.4,-130.03 279.08,-133.1"/>
</g>
<!-- kgpy.optics.component.Component&#45;&gt;kgpy.optics.component.PistonComponent -->
<g id="edge8" class="edge">
<title>kgpy.optics.component.Component&#45;&gt;kgpy.optics.component.PistonComponent</title>
<path fill="none" stroke="black" stroke-width="0.5" d="M298.5,-109.75C298.5,-101.41 298.5,-88.74 298.5,-79.09"/>
<polygon fill="black" stroke="black" stroke-width="0.5" points="300.25,-79.09 298.5,-74.09 296.75,-79.09 300.25,-79.09"/>
</g>
<!-- typing.Generic -->
<g id="node8" class="node">
<title>typing.Generic</title>
<g id="a_node8"><a xlink:title="Abstract base class for generic types.">
<polygon fill="white" stroke="black" stroke-width="0.5" points="412.5,-184 326.5,-184 326.5,-165 412.5,-165 412.5,-184"/>
<text text-anchor="middle" x="369.5" y="-172" font-family="Vera Sans, DejaVu Sans, Liberation Sans, Arial, Helvetica, sans" font-size="10.00">typing.Generic</text>
</a>
</g>
</g>
<!-- typing.Generic&#45;&gt;kgpy.optics.component.Component -->
<g id="edge7" class="edge">
<title>typing.Generic&#45;&gt;kgpy.optics.component.Component</title>
<path fill="none" stroke="black" stroke-width="0.5" d="M358.09,-164.98C346.26,-156.15 327.66,-142.27 314.39,-132.36"/>
<polygon fill="black" stroke="black" stroke-width="0.5" points="315.17,-130.76 310.11,-129.17 313.07,-133.56 315.17,-130.76"/>
</g>
</g>
</svg>
