<?xml version="1.0" encoding="UTF-8" standalone="no"?>
<!DOCTYPE svg PUBLIC "-//W3C//DTD SVG 1.1//EN"
 "http://www.w3.org/Graphics/SVG/1.1/DTD/svg11.dtd">
<!-- Generated by graphviz version 2.44.1 (20200629.0846)
 -->
<!-- Title: inheritanceccd63ce978 Pages: 1 -->
<svg width="425pt" height="357pt"
 viewBox="0.00 0.00 424.50 357.00" xmlns="http://www.w3.org/2000/svg" xmlns:xlink="http://www.w3.org/1999/xlink">
<g id="graph0" class="graph" transform="scale(1 1) rotate(0) translate(4 353)">
<title>inheritanceccd63ce978</title>
<!-- abc.ABC -->
<g id="node1" class="node">
<title>abc.ABC</title>
<g id="a_node1"><a xlink:title="Helper class that provides a standard way to create an ABC using">
<polygon fill="white" stroke="black" stroke-width="0.5" points="206,-349 149,-349 149,-330 206,-330 206,-349"/>
<text text-anchor="middle" x="177.5" y="-337" font-family="Vera Sans, DejaVu Sans, Liberation Sans, Arial, Helvetica, sans" font-size="10.00">abc.ABC</text>
</a>
</g>
</g>
<!-- kgpy.mixin.Copyable -->
<g id="node4" class="node">
<title>kgpy.mixin.Copyable</title>
<polygon fill="white" stroke="black" stroke-width="0.5" points="115,-294 0,-294 0,-275 115,-275 115,-294"/>
<text text-anchor="middle" x="57.5" y="-282" font-family="Vera Sans, DejaVu Sans, Liberation Sans, Arial, Helvetica, sans" font-size="10.00">kgpy.mixin.Copyable</text>
</g>
<!-- abc.ABC&#45;&gt;kgpy.mixin.Copyable -->
<g id="edge2" class="edge">
<title>abc.ABC&#45;&gt;kgpy.mixin.Copyable</title>
<path fill="none" stroke="black" stroke-width="0.5" d="M158.22,-329.98C137.44,-320.81 104.31,-306.18 81.77,-296.22"/>
<polygon fill="black" stroke="black" stroke-width="0.5" points="82.41,-294.59 77.13,-294.17 81,-297.79 82.41,-294.59"/>
</g>
<!-- kgpy.optics.component.Component -->
<g id="node7" class="node">
<title>kgpy.optics.component.Component</title>
<g id="a_node7"><a xlink:title="Component(*args, **kwds)">
<polygon fill="white" stroke="black" stroke-width="0.5" points="392.5,-184 204.5,-184 204.5,-165 392.5,-165 392.5,-184"/>
<text text-anchor="middle" x="298.5" y="-172" font-family="Vera Sans, DejaVu Sans, Liberation Sans, Arial, Helvetica, sans" font-size="10.00">kgpy.optics.component.Component</text>
</a>
</g>
</g>
<!-- abc.ABC&#45;&gt;kgpy.optics.component.Component -->
<g id="edge6" class="edge">
<title>abc.ABC&#45;&gt;kgpy.optics.component.Component</title>
<path fill="none" stroke="black" stroke-width="0.5" d="M206.03,-333.59C229.2,-328.06 260.84,-316.68 278.5,-294 302.71,-262.91 302.08,-213.2 300.09,-189.26"/>
<polygon fill="black" stroke="black" stroke-width="0.5" points="301.81,-188.84 299.6,-184.02 298.32,-189.17 301.81,-188.84"/>
</g>
<!-- esis.optics.detector.Detector -->
<g id="node2" class="node">
<title>esis.optics.detector.Detector</title>
<g id="a_node2"><a xlink:href="../_autosummary/esis.optics.detector.Detector.html#esis.optics.detector.Detector" xlink:title="Detector(*args, **kwds)" target="_top">
<polygon fill="white" stroke="black" stroke-width="0.5" points="376,-19 221,-19 221,0 376,0 376,-19"/>
<text text-anchor="middle" x="298.5" y="-7" font-family="Vera Sans, DejaVu Sans, Liberation Sans, Arial, Helvetica, sans" font-size="10.00">esis.optics.detector.Detector</text>
</a>
</g>
</g>
<!-- kgpy.optics.component.CylindricalComponent -->
<g id="node3" class="node">
<title>kgpy.optics.component.CylindricalComponent</title>
<g id="a_node3"><a xlink:title="CylindricalComponent(*args, **kwds)">
<polygon fill="white" stroke="black" stroke-width="0.5" points="416.5,-74 180.5,-74 180.5,-55 416.5,-55 416.5,-74"/>
<text text-anchor="middle" x="298.5" y="-62" font-family="Vera Sans, DejaVu Sans, Liberation Sans, Arial, Helvetica, sans" font-size="10.00">kgpy.optics.component.CylindricalComponent</text>
</a>
</g>
</g>
<!-- kgpy.optics.component.CylindricalComponent&#45;&gt;esis.optics.detector.Detector -->
<g id="edge1" class="edge">
<title>kgpy.optics.component.CylindricalComponent&#45;&gt;esis.optics.detector.Detector</title>
<path fill="none" stroke="black" stroke-width="0.5" d="M298.5,-54.75C298.5,-46.41 298.5,-33.74 298.5,-24.09"/>
<polygon fill="black" stroke="black" stroke-width="0.5" points="300.25,-24.09 298.5,-19.09 296.75,-24.09 300.25,-24.09"/>
</g>
<!-- kgpy.mixin.Named -->
<g id="node6" class="node">
<title>kgpy.mixin.Named</title>
<g id="a_node6"><a xlink:title="Named(name: kgpy.Name = &lt;factory&gt;)">
<polygon fill="white" stroke="black" stroke-width="0.5" points="254.5,-239 148.5,-239 148.5,-220 254.5,-220 254.5,-239"/>
<text text-anchor="middle" x="201.5" y="-227" font-family="Vera Sans, DejaVu Sans, Liberation Sans, Arial, Helvetica, sans" font-size="10.00">kgpy.mixin.Named</text>
</a>
</g>
</g>
<!-- kgpy.mixin.Copyable&#45;&gt;kgpy.mixin.Named -->
<g id="edge3" class="edge">
<title>kgpy.mixin.Copyable&#45;&gt;kgpy.mixin.Named</title>
<path fill="none" stroke="black" stroke-width="0.5" d="M80.64,-274.98C105.78,-265.73 145.99,-250.93 173.05,-240.97"/>
<polygon fill="black" stroke="black" stroke-width="0.5" points="173.86,-242.54 177.94,-239.17 172.65,-239.26 173.86,-242.54"/>
</g>
<!-- kgpy.mixin.Dataframable -->
<g id="node5" class="node">
<title>kgpy.mixin.Dataframable</title>
<g id="a_node5"><a xlink:title="This mixin class naively converts a child class to a :class:`pandas.Dataframe`.">
<polygon fill="white" stroke="black" stroke-width="0.5" points="270,-294 133,-294 133,-275 270,-275 270,-294"/>
<text text-anchor="middle" x="201.5" y="-282" font-family="Vera Sans, DejaVu Sans, Liberation Sans, Arial, Helvetica, sans" font-size="10.00">kgpy.mixin.Dataframable</text>
</a>
</g>
</g>
<!-- kgpy.mixin.Dataframable&#45;&gt;kgpy.mixin.Named -->
<g id="edge4" class="edge">
<title>kgpy.mixin.Dataframable&#45;&gt;kgpy.mixin.Named</title>
<path fill="none" stroke="black" stroke-width="0.5" d="M201.5,-274.75C201.5,-266.41 201.5,-253.74 201.5,-244.09"/>
<polygon fill="black" stroke="black" stroke-width="0.5" points="203.25,-244.09 201.5,-239.09 199.75,-244.09 203.25,-244.09"/>
</g>
<!-- kgpy.mixin.Named&#45;&gt;kgpy.optics.component.Component -->
<g id="edge5" class="edge">
<title>kgpy.mixin.Named&#45;&gt;kgpy.optics.component.Component</title>
<path fill="none" stroke="black" stroke-width="0.5" d="M217.08,-219.98C233.67,-210.92 259.99,-196.54 278.19,-186.6"/>
<polygon fill="black" stroke="black" stroke-width="0.5" points="279.08,-188.1 282.63,-184.17 277.4,-185.03 279.08,-188.1"/>
</g>
<!-- kgpy.optics.component.PistonComponent -->
<g id="node9" class="node">
<title>kgpy.optics.component.PistonComponent</title>
<g id="a_node9"><a xlink:title="PistonComponent(*args, **kwds)">
<polygon fill="white" stroke="black" stroke-width="0.5" points="407,-129 190,-129 190,-110 407,-110 407,-129"/>
<text text-anchor="middle" x="298.5" y="-117" font-family="Vera Sans, DejaVu Sans, Liberation Sans, Arial, Helvetica, sans" font-size="10.00">kgpy.optics.component.PistonComponent</text>
</a>
</g>
</g>
<!-- kgpy.optics.component.Component&#45;&gt;kgpy.optics.component.PistonComponent -->
<g id="edge9" class="edge">
<title>kgpy.optics.component.Component&#45;&gt;kgpy.optics.component.PistonComponent</title>
<path fill="none" stroke="black" stroke-width="0.5" d="M298.5,-164.75C298.5,-156.41 298.5,-143.74 298.5,-134.09"/>
<polygon fill="black" stroke="black" stroke-width="0.5" points="300.25,-134.09 298.5,-129.09 296.75,-134.09 300.25,-134.09"/>
</g>
<!-- typing.Generic -->
<g id="node8" class="node">
<title>typing.Generic</title>
<g id="a_node8"><a xlink:title="Abstract base class for generic types.">
<polygon fill="white" stroke="black" stroke-width="0.5" points="412.5,-239 326.5,-239 326.5,-220 412.5,-220 412.5,-239"/>
<text text-anchor="middle" x="369.5" y="-227" font-family="Vera Sans, DejaVu Sans, Liberation Sans, Arial, Helvetica, sans" font-size="10.00">typing.Generic</text>
</a>
</g>
</g>
<!-- typing.Generic&#45;&gt;kgpy.optics.component.Component -->
<g id="edge7" class="edge">
<title>typing.Generic&#45;&gt;kgpy.optics.component.Component</title>
<path fill="none" stroke="black" stroke-width="0.5" d="M358.09,-219.98C346.26,-211.15 327.66,-197.27 314.39,-187.36"/>
<polygon fill="black" stroke="black" stroke-width="0.5" points="315.17,-185.76 310.11,-184.17 313.07,-188.56 315.17,-185.76"/>
</g>
<!-- kgpy.optics.component.PistonComponent&#45;&gt;kgpy.optics.component.CylindricalComponent -->
<g id="edge8" class="edge">
<title>kgpy.optics.component.PistonComponent&#45;&gt;kgpy.optics.component.CylindricalComponent</title>
<path fill="none" stroke="black" stroke-width="0.5" d="M298.5,-109.75C298.5,-101.41 298.5,-88.74 298.5,-79.09"/>
<polygon fill="black" stroke="black" stroke-width="0.5" points="300.25,-79.09 298.5,-74.09 296.75,-79.09 300.25,-79.09"/>
</g>
</g>
</svg>
